# xmcd
#
# Track frame offsets:
#	150
#	12876
#	25160
#	36903
#	49861
#	60941
#	70666
#	84421
#	97035
#	108808
#	121017
#	133589
#	147703
#	161146
#	171416
#	183059
#	193775
#	202865
#	216631
#	229502
#	241880
#	254882
#	266075
#	281967
#	293118
#	303693
#	315135
#	329106
#
# Disc length: 4550 seconds
#
# Revision: 0
# Processed by: cddbd v1.5.2PL0 Copyright (c) Steve Scherf et al.
# Submitted via: EasyCDDAExtractor 10.0.2.1
#
DISCID=a411c41c
DTITLE=Various Artist - Memphis Blues (Important Postwar Recordings) - Disc D
DYEAR=2006
DGENRE=Blues
TTITLE0=Rufus Thomas - Tiger Man
TTITLE1=Rufus Thomas - Save That Money
TTITLE2=Little Milton - Lookin' For My Baby
TTITLE3=Little Milton - Homesick For My Baby
TTITLE4=Sammy Lewis and Wille Johnson - Feel So Worried
TTITLE5=Sammy Lewis and Willie Johnson - So Long Baby, Goodbye
TTITLE6=James Cotton - Cotton Crop Blues (Take 1)
TTITLE7=James Cotton - Hold Me In Your Arms
TTITLE8=Howling Wolf - Come Back Home (Take 1)
TTITLE9=Howling Wolf - Chocolate Drop
TTITLE10=Earl Hooker - Blue Guitar
TTITLE11=Boyd Gilmore - Believe I'll Settle Down
TTITLE12=Walter Horton - We All Gotta Go Sometime
TTITLE13=Walter Horton - Off The Wall
TTITLE14=Little Junior - Love My Baby
TTITLE15=Little Junior - Mystery Train
TTITLE16=Bobby Bland - Dry Up Baby
TTITLE17=Bobby Bland - Crying All Night Long
TTITLE18=Billy 'Red' Love - Way After Midnight (Take 1)
TTITLE19=Billy 'Red' Love - Hey Now (Take 1)
TTITLE20=Earl Forest - I Wronged A Woman
TTITLE21=Earl Forest - I Can't Forgive You
TTITLE22=Johnny Ace - Midnight Hours Journey
TTITLE23=Raymond Hill - My Baby Left Me
TTITLE24=Ike Turner - You're Driving Me Insane
TTITLE25=Ike Turner - Trouble And Heartache
TTITLE26=Billy 'The Kid' Emerson - When It Rains It Pours
TTITLE27=Billy 'The Kid' Emerson - Move, Baby, Move
EXTD=
EXTT0=
EXTT1=
EXTT2=
EXTT3=
EXTT4=
EXTT5=
EXTT6=
EXTT7=
EXTT8=
EXTT9=
EXTT10=
EXTT11=
EXTT12=
EXTT13=
EXTT14=
EXTT15=
EXTT16=
EXTT17=
EXTT18=
EXTT19=
EXTT20=
EXTT21=
EXTT22=
EXTT23=
EXTT24=
EXTT25=
EXTT26=
EXTT27=
PLAYORDER=
